# xmcd
#
# Track frame offsets: 
#        150
#        17608
#        32404
#        39717
#        52776
#        63472
#        73682
#        95318
#        113128
#        131310
#        146075
#        154887
#        168145
#        182676
#        194254
#        208259
#        213333
#        222129
#        233493
#        246765
#
# Disc length: 3449 seconds
#
# Revision: 18
# Processed by: cddbd v1.5.2PL0 Copyright (c) Steve Scherf et al.
# Submitted via: ExactAudioCopy v1.1
#
DISCID=120d7714
DTITLE=Nobuo Uematsu - Final Fantasy OST (remaster version)
DYEAR=2013
DGENRE=Game Soundtrack
TTITLE0=Tina
TTITLE1=coin song
TTITLE2=techno de chocobo
TTITLE3=永遠に、レイチェル
TTITLE4=slam shuffle
TTITLE5=spinach rag
TTITLE6=overture
TTITLE7=aria di mezzo carattere
TTITLE8=the wedding waltz ~ duel
TTITLE9=grand finale?
TTITLE10=Setzer
TTITLE11=Johnny C Bad
TTITLE12=the empire Ghastra
TTITLE13=devil's lab
TTITLE14=飛空艇ブラックジャック
TTITLE15=??
TTITLE16=Mog
TTITLE17=Stragus
TTITLE18=Relm
TTITLE19=another world of beasts
EXTD=YEAR: 2013
EXTT0=
EXTT1=
EXTT2=
EXTT3=
EXTT4=
EXTT5=
EXTT6=
EXTT7=
EXTT8=
EXTT9=
EXTT10=
EXTT11=
EXTT12=
EXTT13=
EXTT14=
EXTT15=
EXTT16=
EXTT17=
EXTT18=
EXTT19=
PLAYORDER=
